<svg width="145" height="23" viewBox="0 0 145 23" fill="none" xmlns="http://www.w3.org/2000/svg">
<path d="M0.992 1.2H8.624C10.448 1.2 12.056 1.552 13.448 2.256C14.856 2.944 15.944 3.92 16.712 5.184C17.496 6.448 17.888 7.92 17.888 9.6C17.888 11.28 17.496 12.752 16.712 14.016C15.944 15.28 14.856 16.264 13.448 16.968C12.056 17.656 10.448 18 8.624 18H0.992V1.2ZM8.432 14.808C10.112 14.808 11.448 14.344 12.44 13.416C13.448 12.472 13.952 11.2 13.952 9.6C13.952 8 13.448 6.736 12.44 5.808C11.448 4.864 10.112 4.392 8.432 4.392H4.88V14.808H8.432ZM33.5641 5.088V18H30.0121V16.464C29.5161 17.024 28.9241 17.456 28.2361 17.76C27.5481 18.048 26.8041 18.192 26.0041 18.192C24.3081 18.192 22.9641 17.704 21.9721 16.728C20.9801 15.752 20.4841 14.304 20.4841 12.384V5.088H24.2281V11.832C24.2281 13.912 25.1001 14.952 26.8441 14.952C27.7401 14.952 28.4601 14.664 29.0041 14.088C29.5481 13.496 29.8201 12.624 29.8201 11.472V5.088H33.5641ZM50.1847 0.191999V18H46.6087V16.512C45.6807 17.632 44.3367 18.192 42.5767 18.192C41.3607 18.192 40.2567 17.92 39.2647 17.376C38.2887 16.832 37.5207 16.056 36.9607 15.048C36.4007 14.04 36.1207 12.872 36.1207 11.544C36.1207 10.216 36.4007 9.048 36.9607 8.04C37.5207 7.032 38.2887 6.256 39.2647 5.712C40.2567 5.168 41.3607 4.896 42.5767 4.896C44.2247 4.896 45.5127 5.416 46.4407 6.456V0.191999H50.1847ZM43.2247 15.12C44.1687 15.12 44.9527 14.8 45.5767 14.16C46.2007 13.504 46.5127 12.632 46.5127 11.544C46.5127 10.456 46.2007 9.592 45.5767 8.952C44.9527 8.296 44.1687 7.968 43.2247 7.968C42.2647 7.968 41.4727 8.296 40.8487 8.952C40.2247 9.592 39.9127 10.456 39.9127 11.544C39.9127 12.632 40.2247 13.504 40.8487 14.16C41.4727 14.8 42.2647 15.12 43.2247 15.12ZM66.2979 11.592C66.2979 11.64 66.2739 11.976 66.2259 12.6H56.4579C56.6339 13.4 57.0499 14.032 57.7059 14.496C58.3619 14.96 59.1779 15.192 60.1539 15.192C60.8259 15.192 61.4179 15.096 61.9299 14.904C62.4579 14.696 62.9459 14.376 63.3939 13.944L65.3859 16.104C64.1699 17.496 62.3939 18.192 60.0579 18.192C58.6019 18.192 57.3139 17.912 56.1939 17.352C55.0739 16.776 54.2099 15.984 53.6019 14.976C52.9939 13.968 52.6899 12.824 52.6899 11.544C52.6899 10.28 52.9859 9.144 53.5779 8.136C54.1859 7.112 55.0099 6.32 56.0499 5.76C57.1059 5.184 58.2819 4.896 59.5779 4.896C60.8419 4.896 61.9859 5.168 63.0099 5.712C64.0339 6.256 64.8339 7.04 65.4099 8.064C66.0019 9.072 66.2979 10.248 66.2979 11.592ZM59.6019 7.728C58.7539 7.728 58.0419 7.968 57.4659 8.448C56.8899 8.928 56.5379 9.584 56.4099 10.416H62.7699C62.6419 9.6 62.2899 8.952 61.7139 8.472C61.1379 7.976 60.4339 7.728 59.6019 7.728ZM74.5745 18.288C73.2465 18.288 71.9585 18.112 70.7105 17.76C69.4785 17.392 68.4865 16.92 67.7345 16.344L69.0545 13.416C69.7745 13.944 70.6305 14.368 71.6225 14.688C72.6145 15.008 73.6065 15.168 74.5985 15.168C75.7025 15.168 76.5185 15.008 77.0465 14.688C77.5745 14.352 77.8385 13.912 77.8385 13.368C77.8385 12.968 77.6785 12.64 77.3585 12.384C77.0545 12.112 76.6545 11.896 76.1585 11.736C75.6785 11.576 75.0225 11.4 74.1905 11.208C72.9105 10.904 71.8625 10.6 71.0465 10.296C70.2305 9.992 69.5265 9.504 68.9345 8.832C68.3585 8.16 68.0705 7.264 68.0705 6.144C68.0705 5.168 68.3345 4.288 68.8625 3.504C69.3905 2.704 70.1825 2.072 71.2385 1.608C72.3105 1.144 73.6145 0.912 75.1505 0.912C76.2225 0.912 77.2705 1.04 78.2945 1.296C79.3185 1.552 80.2145 1.92 80.9825 2.4L79.7825 5.352C78.2305 4.472 76.6785 4.032 75.1265 4.032C74.0385 4.032 73.2305 4.208 72.7025 4.56C72.1905 4.912 71.9345 5.376 71.9345 5.952C71.9345 6.528 72.2305 6.96 72.8225 7.248C73.4305 7.52 74.3505 7.792 75.5825 8.064C76.8625 8.368 77.9105 8.672 78.7265 8.976C79.5425 9.28 80.2385 9.76 80.8145 10.416C81.4065 11.072 81.7025 11.96 81.7025 13.08C81.7025 14.04 81.4305 14.92 80.8865 15.72C80.3585 16.504 79.5585 17.128 78.4865 17.592C77.4145 18.056 76.1105 18.288 74.5745 18.288ZM91.9432 4.896C93.5432 4.896 94.8312 5.376 95.8072 6.336C96.7992 7.296 97.2952 8.72 97.2952 10.608V18H93.5512V11.184C93.5512 10.16 93.3272 9.4 92.8792 8.904C92.4312 8.392 91.7832 8.136 90.9352 8.136C89.9912 8.136 89.2392 8.432 88.6792 9.024C88.1192 9.6 87.8392 10.464 87.8392 11.616V18H84.0952V0.191999H87.8392V6.432C88.3352 5.936 88.9352 5.56 89.6392 5.304C90.3432 5.032 91.1112 4.896 91.9432 4.896ZM105.897 4.896C107.897 4.896 109.433 5.376 110.505 6.336C111.577 7.28 112.113 8.712 112.113 10.632V18H108.609V16.392C107.905 17.592 106.593 18.192 104.673 18.192C103.681 18.192 102.817 18.024 102.081 17.688C101.361 17.352 100.809 16.888 100.425 16.296C100.041 15.704 99.8489 15.032 99.8489 14.28C99.8489 13.08 100.297 12.136 101.193 11.448C102.105 10.76 103.505 10.416 105.393 10.416H108.369C108.369 9.6 108.121 8.976 107.625 8.544C107.129 8.096 106.385 7.872 105.393 7.872C104.705 7.872 104.025 7.984 103.353 8.208C102.697 8.416 102.137 8.704 101.673 9.072L100.329 6.456C101.033 5.96 101.873 5.576 102.849 5.304C103.841 5.032 104.857 4.896 105.897 4.896ZM105.609 15.672C106.249 15.672 106.817 15.528 107.313 15.24C107.809 14.936 108.161 14.496 108.369 13.92V12.6H105.801C104.265 12.6 103.497 13.104 103.497 14.112C103.497 14.592 103.681 14.976 104.049 15.264C104.433 15.536 104.953 15.672 105.609 15.672ZM123.133 4.896C124.333 4.896 125.421 5.176 126.397 5.736C127.389 6.28 128.165 7.056 128.725 8.064C129.285 9.056 129.565 10.216 129.565 11.544C129.565 12.872 129.285 14.04 128.725 15.048C128.165 16.04 127.389 16.816 126.397 17.376C125.421 17.92 124.333 18.192 123.133 18.192C121.485 18.192 120.189 17.672 119.245 16.632V22.656H115.501V5.088H119.077V6.576C120.005 5.456 121.357 4.896 123.133 4.896ZM122.485 15.12C123.445 15.12 124.229 14.8 124.837 14.16C125.461 13.504 125.773 12.632 125.773 11.544C125.773 10.456 125.461 9.592 124.837 8.952C124.229 8.296 123.445 7.968 122.485 7.968C121.525 7.968 120.733 8.296 120.109 8.952C119.501 9.592 119.197 10.456 119.197 11.544C119.197 12.632 119.501 13.504 120.109 14.16C120.733 14.8 121.525 15.12 122.485 15.12ZM144.72 11.592C144.72 11.64 144.696 11.976 144.648 12.6H134.88C135.056 13.4 135.472 14.032 136.128 14.496C136.784 14.96 137.6 15.192 138.576 15.192C139.248 15.192 139.84 15.096 140.352 14.904C140.88 14.696 141.368 14.376 141.816 13.944L143.808 16.104C142.592 17.496 140.816 18.192 138.48 18.192C137.024 18.192 135.736 17.912 134.616 17.352C133.496 16.776 132.632 15.984 132.024 14.976C131.416 13.968 131.112 12.824 131.112 11.544C131.112 10.28 131.408 9.144 132 8.136C132.608 7.112 133.432 6.32 134.472 5.76C135.528 5.184 136.704 4.896 138 4.896C139.264 4.896 140.408 5.168 141.432 5.712C142.456 6.256 143.256 7.04 143.832 8.064C144.424 9.072 144.72 10.248 144.72 11.592ZM138.024 7.728C137.176 7.728 136.464 7.968 135.888 8.448C135.312 8.928 134.96 9.584 134.832 10.416H141.192C141.064 9.6 140.712 8.952 140.136 8.472C139.56 7.976 138.856 7.728 138.024 7.728Z" fill="#244D4D"/>
</svg>
