<svg width="145" height="24" viewBox="0 0 145 24" fill="none" xmlns="http://www.w3.org/2000/svg">
<path d="M0.992 1.66631H8.624C10.448 1.66631 12.056 2.01831 13.448 2.72231C14.856 3.41031 15.944 4.38631 16.712 5.65031C17.496 6.91431 17.888 8.38631 17.888 10.0663C17.888 11.7463 17.496 13.2183 16.712 14.4823C15.944 15.7463 14.856 16.7303 13.448 17.4343C12.056 18.1223 10.448 18.4663 8.624 18.4663H0.992V1.66631ZM8.432 15.2743C10.112 15.2743 11.448 14.8103 12.44 13.8823C13.448 12.9383 13.952 11.6663 13.952 10.0663C13.952 8.46631 13.448 7.20231 12.44 6.27431C11.448 5.33031 10.112 4.85831 8.432 4.85831H4.88V15.2743H8.432ZM33.5641 5.55431V18.4663H30.0121V16.9303C29.5161 17.4903 28.9241 17.9223 28.2361 18.2263C27.5481 18.5143 26.8041 18.6583 26.0041 18.6583C24.3081 18.6583 22.9641 18.1703 21.9721 17.1943C20.9801 16.2183 20.4841 14.7703 20.4841 12.8503V5.55431H24.2281V12.2983C24.2281 14.3783 25.1001 15.4183 26.8441 15.4183C27.7401 15.4183 28.4601 15.1303 29.0041 14.5543C29.5481 13.9623 29.8201 13.0903 29.8201 11.9383V5.55431H33.5641ZM50.1847 0.658308V18.4663H46.6087V16.9783C45.6807 18.0983 44.3367 18.6583 42.5767 18.6583C41.3607 18.6583 40.2567 18.3863 39.2647 17.8423C38.2887 17.2983 37.5207 16.5223 36.9607 15.5143C36.4007 14.5063 36.1207 13.3383 36.1207 12.0103C36.1207 10.6823 36.4007 9.51431 36.9607 8.50631C37.5207 7.49831 38.2887 6.72231 39.2647 6.17831C40.2567 5.63431 41.3607 5.36231 42.5767 5.36231C44.2247 5.36231 45.5127 5.88231 46.4407 6.92231V0.658308H50.1847ZM43.2247 15.5863C44.1687 15.5863 44.9527 15.2663 45.5767 14.6263C46.2007 13.9703 46.5127 13.0983 46.5127 12.0103C46.5127 10.9223 46.2007 10.0583 45.5767 9.41831C44.9527 8.76231 44.1687 8.43431 43.2247 8.43431C42.2647 8.43431 41.4727 8.76231 40.8487 9.41831C40.2247 10.0583 39.9127 10.9223 39.9127 12.0103C39.9127 13.0983 40.2247 13.9703 40.8487 14.6263C41.4727 15.2663 42.2647 15.5863 43.2247 15.5863ZM66.2979 12.0583C66.2979 12.1063 66.2739 12.4423 66.2259 13.0663H56.4579C56.6339 13.8663 57.0499 14.4983 57.7059 14.9623C58.3619 15.4263 59.1779 15.6583 60.1539 15.6583C60.8259 15.6583 61.4179 15.5623 61.9299 15.3703C62.4579 15.1623 62.9459 14.8423 63.3939 14.4103L65.3859 16.5703C64.1699 17.9623 62.3939 18.6583 60.0579 18.6583C58.6019 18.6583 57.3139 18.3783 56.1939 17.8183C55.0739 17.2423 54.2099 16.4503 53.6019 15.4423C52.9939 14.4343 52.6899 13.2903 52.6899 12.0103C52.6899 10.7463 52.9859 9.61031 53.5779 8.60231C54.1859 7.57831 55.0099 6.78631 56.0499 6.22631C57.1059 5.65031 58.2819 5.36231 59.5779 5.36231C60.8419 5.36231 61.9859 5.63431 63.0099 6.17831C64.0339 6.72231 64.8339 7.50631 65.4099 8.53031C66.0019 9.53831 66.2979 10.7143 66.2979 12.0583ZM59.6019 8.19431C58.7539 8.19431 58.0419 8.43431 57.4659 8.91431C56.8899 9.39431 56.5379 10.0503 56.4099 10.8823H62.7699C62.6419 10.0663 62.2899 9.41831 61.7139 8.93831C61.1379 8.44231 60.4339 8.19431 59.6019 8.19431ZM74.5745 18.7543C73.2465 18.7543 71.9585 18.5783 70.7105 18.2263C69.4785 17.8583 68.4865 17.3863 67.7345 16.8103L69.0545 13.8823C69.7745 14.4103 70.6305 14.8343 71.6225 15.1543C72.6145 15.4743 73.6065 15.6343 74.5985 15.6343C75.7025 15.6343 76.5185 15.4743 77.0465 15.1543C77.5745 14.8183 77.8385 14.3783 77.8385 13.8343C77.8385 13.4343 77.6785 13.1063 77.3585 12.8503C77.0545 12.5783 76.6545 12.3623 76.1585 12.2023C75.6785 12.0423 75.0225 11.8663 74.1905 11.6743C72.9105 11.3703 71.8625 11.0663 71.0465 10.7623C70.2305 10.4583 69.5265 9.97031 68.9345 9.29831C68.3585 8.62631 68.0705 7.73031 68.0705 6.61031C68.0705 5.63431 68.3345 4.75431 68.8625 3.97031C69.3905 3.17031 70.1825 2.53831 71.2385 2.07431C72.3105 1.61031 73.6145 1.37831 75.1505 1.37831C76.2225 1.37831 77.2705 1.50631 78.2945 1.76231C79.3185 2.01831 80.2145 2.38631 80.9825 2.86631L79.7825 5.81831C78.2305 4.93831 76.6785 4.49831 75.1265 4.49831C74.0385 4.49831 73.2305 4.67431 72.7025 5.02631C72.1905 5.37831 71.9345 5.84231 71.9345 6.41831C71.9345 6.99431 72.2305 7.42631 72.8225 7.71431C73.4305 7.98631 74.3505 8.25831 75.5825 8.53031C76.8625 8.83431 77.9105 9.13831 78.7265 9.44231C79.5425 9.74631 80.2385 10.2263 80.8145 10.8823C81.4065 11.5383 81.7025 12.4263 81.7025 13.5463C81.7025 14.5063 81.4305 15.3863 80.8865 16.1863C80.3585 16.9703 79.5585 17.5943 78.4865 18.0583C77.4145 18.5223 76.1105 18.7543 74.5745 18.7543ZM91.9432 5.36231C93.5432 5.36231 94.8312 5.84231 95.8072 6.80231C96.7992 7.76231 97.2952 9.18631 97.2952 11.0743V18.4663H93.5512V11.6503C93.5512 10.6263 93.3272 9.86631 92.8792 9.37031C92.4312 8.85831 91.7832 8.60231 90.9352 8.60231C89.9912 8.60231 89.2392 8.89831 88.6792 9.49031C88.1192 10.0663 87.8392 10.9303 87.8392 12.0823V18.4663H84.0952V0.658308H87.8392V6.89831C88.3352 6.40231 88.9352 6.02631 89.6392 5.77031C90.3432 5.49831 91.1112 5.36231 91.9432 5.36231ZM105.897 5.36231C107.897 5.36231 109.433 5.84231 110.505 6.80231C111.577 7.74631 112.113 9.17831 112.113 11.0983V18.4663H108.609V16.8583C107.905 18.0583 106.593 18.6583 104.673 18.6583C103.681 18.6583 102.817 18.4903 102.081 18.1543C101.361 17.8183 100.809 17.3543 100.425 16.7623C100.041 16.1703 99.8489 15.4983 99.8489 14.7463C99.8489 13.5463 100.297 12.6023 101.193 11.9143C102.105 11.2263 103.505 10.8823 105.393 10.8823H108.369C108.369 10.0663 108.121 9.44231 107.625 9.01031C107.129 8.56231 106.385 8.33831 105.393 8.33831C104.705 8.33831 104.025 8.45031 103.353 8.67431C102.697 8.88231 102.137 9.17031 101.673 9.53831L100.329 6.92231C101.033 6.42631 101.873 6.04231 102.849 5.77031C103.841 5.49831 104.857 5.36231 105.897 5.36231ZM105.609 16.1383C106.249 16.1383 106.817 15.9943 107.313 15.7063C107.809 15.4023 108.161 14.9623 108.369 14.3863V13.0663H105.801C104.265 13.0663 103.497 13.5703 103.497 14.5783C103.497 15.0583 103.681 15.4423 104.049 15.7303C104.433 16.0023 104.953 16.1383 105.609 16.1383ZM123.133 5.36231C124.333 5.36231 125.421 5.64231 126.397 6.20231C127.389 6.74631 128.165 7.52231 128.725 8.53031C129.285 9.52231 129.565 10.6823 129.565 12.0103C129.565 13.3383 129.285 14.5063 128.725 15.5143C128.165 16.5063 127.389 17.2823 126.397 17.8423C125.421 18.3863 124.333 18.6583 123.133 18.6583C121.485 18.6583 120.189 18.1383 119.245 17.0983V23.1223H115.501V5.55431H119.077V7.04231C120.005 5.92231 121.357 5.36231 123.133 5.36231ZM122.485 15.5863C123.445 15.5863 124.229 15.2663 124.837 14.6263C125.461 13.9703 125.773 13.0983 125.773 12.0103C125.773 10.9223 125.461 10.0583 124.837 9.41831C124.229 8.76231 123.445 8.43431 122.485 8.43431C121.525 8.43431 120.733 8.76231 120.109 9.41831C119.501 10.0583 119.197 10.9223 119.197 12.0103C119.197 13.0983 119.501 13.9703 120.109 14.6263C120.733 15.2663 121.525 15.5863 122.485 15.5863ZM144.72 12.0583C144.72 12.1063 144.696 12.4423 144.648 13.0663H134.88C135.056 13.8663 135.472 14.4983 136.128 14.9623C136.784 15.4263 137.6 15.6583 138.576 15.6583C139.248 15.6583 139.84 15.5623 140.352 15.3703C140.88 15.1623 141.368 14.8423 141.816 14.4103L143.808 16.5703C142.592 17.9623 140.816 18.6583 138.48 18.6583C137.024 18.6583 135.736 18.3783 134.616 17.8183C133.496 17.2423 132.632 16.4503 132.024 15.4423C131.416 14.4343 131.112 13.2903 131.112 12.0103C131.112 10.7463 131.408 9.61031 132 8.60231C132.608 7.57831 133.432 6.78631 134.472 6.22631C135.528 5.65031 136.704 5.36231 138 5.36231C139.264 5.36231 140.408 5.63431 141.432 6.17831C142.456 6.72231 143.256 7.50631 143.832 8.53031C144.424 9.53831 144.72 10.7143 144.72 12.0583ZM138.024 8.19431C137.176 8.19431 136.464 8.43431 135.888 8.91431C135.312 9.39431 134.96 10.0503 134.832 10.8823H141.192C141.064 10.0663 140.712 9.41831 140.136 8.93831C139.56 8.44231 138.856 8.19431 138.024 8.19431Z" fill="white"/>
</svg>
